<svg id="mermaid-f9b511c7-5fd6-413d-9a6e-7c949a410653" width="3602.06396484375" xmlns="http://www.w3.org/2000/svg" style="max-width: 3622px;" viewBox="-40 -40 3602.06396484375 2537" role="graphics-document document" aria-roledescription="sequence" xmlns:xlink="http://www.w3.org/1999/xlink" height="2537"><rect x="-40" y="-40" width="3602.06396484375" height="2537" fill="#ffffff"/><g><rect x="1831.5" y="0" fill="LightSalmon" stroke="rgb(0,0,0, 0.5)" width="568" height="2457" class="rect"/><text x="2115.5" y="14" dominant-baseline="central" alignment-baseline="central" class="text" style="text-anchor: middle; font-size: 16px; font-weight: 400;"><tspan x="2115.5" dy="0">Daniel — Contracts</tspan></text></g><g><rect x="1341.5" y="0" fill="LightYellow" stroke="rgb(0,0,0, 0.5)" width="160" height="2457" class="rect"/><text x="1421.5" y="14" dominant-baseline="central" alignment-baseline="central" class="text" style="text-anchor: middle; font-size: 16px; font-weight: 400;"><tspan x="1421.5" dy="0">Hamza — TEE Service</tspan></text></g><g><rect x="707" y="0" fill="LightGreen" stroke="rgb(0,0,0, 0.5)" width="501" height="2457" class="rect"/><text x="957.5" y="14" dominant-baseline="central" alignment-baseline="central" class="text" style="text-anchor: middle; font-size: 16px; font-weight: 400;"><tspan x="957.5" dy="0">Dex — Data + Frontend</tspan></text></g><g><rect x="480" y="0" fill="LightBlue" stroke="rgb(0,0,0, 0.5)" width="167" height="2457" class="rect"/><text x="563.5" y="14" dominant-baseline="central" alignment-baseline="central" class="text" style="text-anchor: middle; font-size: 16px; font-weight: 400;"><tspan x="563.5" dy="0">Marcos — Smart Account</tspan></text></g><g><rect x="0" y="0" fill="White" stroke="rgb(0,0,0, 0.5)" width="160" height="2457" class="rect"/><text x="80" y="14" dominant-baseline="central" alignment-baseline="central" class="text" style="text-anchor: middle; font-size: 16px; font-weight: 400;"><tspan x="80" dy="0">User (XRPL)</tspan></text></g><g><rect x="3352" y="2382" fill="#eaeaea" stroke="#666" width="170" height="65" name="Registry" rx="3" ry="3" class="actor actor-bottom"/><text x="3437" y="2414.5" dominant-baseline="central" alignment-baseline="central" class="actor actor-box" style="text-anchor: middle; font-size: 16px; font-weight: 400;"><tspan x="3437" dy="0">TeeExtensionRegistry</tspan></text></g><g><rect x="2997.5" y="2382" fill="#eaeaea" stroke="#666" width="150" height="65" name="Rysk" rx="3" ry="3" class="actor actor-bottom"/><text x="3072.5" y="2414.5" dominant-baseline="central" alignment-baseline="central" class="actor actor-box" style="text-anchor: middle; font-size: 16px; font-weight: 400;"><tspan x="3072.5" dy="0">Rysk Server</tspan></text></g><g><rect x="2797.5" y="2382" fill="#eaeaea" stroke="#666" width="150" height="65" name="FDC" rx="3" ry="3" class="actor actor-bottom"/><text x="2872.5" y="2414.5" dominant-baseline="central" alignment-baseline="central" class="actor actor-box" style="text-anchor: middle; font-size: 16px; font-weight: 400;"><tspan x="2872.5" dy="0">FDC</tspan></text></g><g><rect x="2459.5" y="2382" fill="#eaeaea" stroke="#666" width="150" height="65" name="FTSO" rx="3" ry="3" class="actor actor-bottom"/><text x="2534.5" y="2414.5" dominant-baseline="central" alignment-baseline="central" class="actor actor-box" style="text-anchor: middle; font-size: 16px; font-weight: 400;"><tspan x="2534.5" dy="0">FTSO (XRP/USD)</tspan></text></g><g><rect x="2236.5" y="2382" fill="#eaeaea" stroke="#666" width="158" height="65" name="Mock" rx="3" ry="3" class="actor actor-bottom"/><text x="2315.5" y="2414.5" dominant-baseline="central" alignment-baseline="central" class="actor actor-box" style="text-anchor: middle; font-size: 16px; font-weight: 400;"><tspan x="2315.5" dy="0">Mock Opyn Gamma</tspan></text></g><g><rect x="2036.5" y="2382" fill="#eaeaea" stroke="#666" width="150" height="65" name="Verifier" rx="3" ry="3" class="actor actor-bottom"/><text x="2111.5" y="2414.5" dominant-baseline="central" alignment-baseline="central" class="actor actor-box" style="text-anchor: middle; font-size: 16px; font-weight: 400;"><tspan x="2111.5" dy="0">Attestation Verifier</tspan></text></g><g><rect x="1836.5" y="2382" fill="#eaeaea" stroke="#666" width="150" height="65" name="Relay" rx="3" ry="3" class="actor actor-bottom"/><text x="1911.5" y="2414.5" dominant-baseline="central" alignment-baseline="central" class="actor actor-box" style="text-anchor: middle; font-size: 16px; font-weight: 400;"><tspan x="1911.5" dy="0">Relay Contract</tspan></text></g><g><rect x="1346.5" y="2382" fill="#eaeaea" stroke="#666" width="150" height="65" name="TEE" rx="3" ry="3" class="actor actor-bottom"/><text x="1421.5" y="2414.5" dominant-baseline="central" alignment-baseline="central" class="actor actor-box" style="text-anchor: middle; font-size: 16px; font-weight: 400;"><tspan x="1421.5" dy="0">FCE Extension</tspan></text></g><g><rect x="1053" y="2382" fill="#eaeaea" stroke="#666" width="150" height="65" name="FE" rx="3" ry="3" class="actor actor-bottom"/><text x="1128" y="2414.5" dominant-baseline="central" alignment-baseline="central" class="actor actor-box" style="text-anchor: middle; font-size: 16px; font-weight: 400;"><tspan x="1128" dy="0">Frontend</tspan></text></g><g><rect x="712" y="2382" fill="#eaeaea" stroke="#666" width="156" height="65" name="W2J" rx="3" ry="3" class="actor actor-bottom"/><text x="790" y="2414.5" dominant-baseline="central" alignment-baseline="central" class="actor actor-box" style="text-anchor: middle; font-size: 16px; font-weight: 400;"><tspan x="790" dy="0">Web2Json Pipeline</tspan></text></g><g><rect x="488.5" y="2382" fill="#eaeaea" stroke="#666" width="150" height="65" name="SA" rx="3" ry="3" class="actor actor-bottom"/><text x="563.5" y="2414.5" dominant-baseline="central" alignment-baseline="central" class="actor actor-box" style="text-anchor: middle; font-size: 16px; font-weight: 400;"><tspan x="563.5" dy="0">Smart Account</tspan></text></g><g><rect x="5" y="2382" fill="#eaeaea" stroke="#666" width="150" height="65" name="Xaman" rx="3" ry="3" class="actor actor-bottom"/><text x="80" y="2414.5" dominant-baseline="central" alignment-baseline="central" class="actor actor-box" style="text-anchor: middle; font-size: 16px; font-weight: 400;"><tspan x="80" dy="0">Xaman</tspan></text></g><g><line id="actor179" x1="3437" y1="93" x2="3437" y2="2382" class="actor-line 200" stroke-width="0.5px" stroke="#999" name="Registry"/><g id="root-179"><rect x="3352" y="28" fill="#eaeaea" stroke="#666" width="170" height="65" name="Registry" rx="3" ry="3" class="actor actor-top"/><text x="3437" y="60.5" dominant-baseline="central" alignment-baseline="central" class="actor actor-box" style="text-anchor: middle; font-size: 16px; font-weight: 400;"><tspan x="3437" dy="0">TeeExtensionRegistry</tspan></text></g></g><g><line id="actor178" x1="3072.5" y1="93" x2="3072.5" y2="2382" class="actor-line 200" stroke-width="0.5px" stroke="#999" name="Rysk"/><g id="root-178"><rect x="2997.5" y="28" fill="#eaeaea" stroke="#666" width="150" height="65" name="Rysk" rx="3" ry="3" class="actor actor-top"/><text x="3072.5" y="60.5" dominant-baseline="central" alignment-baseline="central" class="actor actor-box" style="text-anchor: middle; font-size: 16px; font-weight: 400;"><tspan x="3072.5" dy="0">Rysk Server</tspan></text></g></g><g><line id="actor177" x1="2872.5" y1="93" x2="2872.5" y2="2382" class="actor-line 200" stroke-width="0.5px" stroke="#999" name="FDC"/><g id="root-177"><rect x="2797.5" y="28" fill="#eaeaea" stroke="#666" width="150" height="65" name="FDC" rx="3" ry="3" class="actor actor-top"/><text x="2872.5" y="60.5" dominant-baseline="central" alignment-baseline="central" class="actor actor-box" style="text-anchor: middle; font-size: 16px; font-weight: 400;"><tspan x="2872.5" dy="0">FDC</tspan></text></g></g><g><line id="actor176" x1="2534.5" y1="93" x2="2534.5" y2="2382" class="actor-line 200" stroke-width="0.5px" stroke="#999" name="FTSO"/><g id="root-176"><rect x="2459.5" y="28" fill="#eaeaea" stroke="#666" width="150" height="65" name="FTSO" rx="3" ry="3" class="actor actor-top"/><text x="2534.5" y="60.5" dominant-baseline="central" alignment-baseline="central" class="actor actor-box" style="text-anchor: middle; font-size: 16px; font-weight: 400;"><tspan x="2534.5" dy="0">FTSO (XRP/USD)</tspan></text></g></g><g><line id="actor175" x1="2315.5" y1="93" x2="2315.5" y2="2382" class="actor-line 200" stroke-width="0.5px" stroke="#999" name="Mock"/><g id="root-175"><rect x="2236.5" y="28" fill="#eaeaea" stroke="#666" width="158" height="65" name="Mock" rx="3" ry="3" class="actor actor-top"/><text x="2315.5" y="60.5" dominant-baseline="central" alignment-baseline="central" class="actor actor-box" style="text-anchor: middle; font-size: 16px; font-weight: 400;"><tspan x="2315.5" dy="0">Mock Opyn Gamma</tspan></text></g></g><g><line id="actor174" x1="2111.5" y1="93" x2="2111.5" y2="2382" class="actor-line 200" stroke-width="0.5px" stroke="#999" name="Verifier"/><g id="root-174"><rect x="2036.5" y="28" fill="#eaeaea" stroke="#666" width="150" height="65" name="Verifier" rx="3" ry="3" class="actor actor-top"/><text x="2111.5" y="60.5" dominant-baseline="central" alignment-baseline="central" class="actor actor-box" style="text-anchor: middle; font-size: 16px; font-weight: 400;"><tspan x="2111.5" dy="0">Attestation Verifier</tspan></text></g></g><g><line id="actor173" x1="1911.5" y1="93" x2="1911.5" y2="2382" class="actor-line 200" stroke-width="0.5px" stroke="#999" name="Relay"/><g id="root-173"><rect x="1836.5" y="28" fill="#eaeaea" stroke="#666" width="150" height="65" name="Relay" rx="3" ry="3" class="actor actor-top"/><text x="1911.5" y="60.5" dominant-baseline="central" alignment-baseline="central" class="actor actor-box" style="text-anchor: middle; font-size: 16px; font-weight: 400;"><tspan x="1911.5" dy="0">Relay Contract</tspan></text></g></g><g><line id="actor172" x1="1421.5" y1="93" x2="1421.5" y2="2382" class="actor-line 200" stroke-width="0.5px" stroke="#999" name="TEE"/><g id="root-172"><rect x="1346.5" y="28" fill="#eaeaea" stroke="#666" width="150" height="65" name="TEE" rx="3" ry="3" class="actor actor-top"/><text x="1421.5" y="60.5" dominant-baseline="central" alignment-baseline="central" class="actor actor-box" style="text-anchor: middle; font-size: 16px; font-weight: 400;"><tspan x="1421.5" dy="0">FCE Extension</tspan></text></g></g><g><line id="actor171" x1="1128" y1="93" x2="1128" y2="2382" class="actor-line 200" stroke-width="0.5px" stroke="#999" name="FE"/><g id="root-171"><rect x="1053" y="28" fill="#eaeaea" stroke="#666" width="150" height="65" name="FE" rx="3" ry="3" class="actor actor-top"/><text x="1128" y="60.5" dominant-baseline="central" alignment-baseline="central" class="actor actor-box" style="text-anchor: middle; font-size: 16px; font-weight: 400;"><tspan x="1128" dy="0">Frontend</tspan></text></g></g><g><line id="actor170" x1="790" y1="93" x2="790" y2="2382" class="actor-line 200" stroke-width="0.5px" stroke="#999" name="W2J"/><g id="root-170"><rect x="712" y="28" fill="#eaeaea" stroke="#666" width="156" height="65" name="W2J" rx="3" ry="3" class="actor actor-top"/><text x="790" y="60.5" dominant-baseline="central" alignment-baseline="central" class="actor actor-box" style="text-anchor: middle; font-size: 16px; font-weight: 400;"><tspan x="790" dy="0">Web2Json Pipeline</tspan></text></g></g><g><line id="actor169" x1="563.5" y1="93" x2="563.5" y2="2382" class="actor-line 200" stroke-width="0.5px" stroke="#999" name="SA"/><g id="root-169"><rect x="488.5" y="28" fill="#eaeaea" stroke="#666" width="150" height="65" name="SA" rx="3" ry="3" class="actor actor-top"/><text x="563.5" y="60.5" dominant-baseline="central" alignment-baseline="central" class="actor actor-box" style="text-anchor: middle; font-size: 16px; font-weight: 400;"><tspan x="563.5" dy="0">Smart Account</tspan></text></g></g><g><line id="actor168" x1="80" y1="93" x2="80" y2="2382" class="actor-line 200" stroke-width="0.5px" stroke="#999" name="Xaman"/><g id="root-168"><rect x="5" y="28" fill="#eaeaea" stroke="#666" width="150" height="65" name="Xaman" rx="3" ry="3" class="actor actor-top"/><text x="80" y="60.5" dominant-baseline="central" alignment-baseline="central" class="actor actor-box" style="text-anchor: middle; font-size: 16px; font-weight: 400;"><tspan x="80" dy="0">Xaman</tspan></text></g></g><style>#mermaid-f9b511c7-5fd6-413d-9a6e-7c949a410653{font-family:ui-sans-serif,-apple-system,BlinkMacSystemFont,"Segoe UI Variable Display","Segoe UI",Helvetica,"Apple Color Emoji","Noto Sans Arabic","Noto Sans Hebrew",Arial,sans-serif,"Segoe UI Emoji","Segoe UI Symbol";font-size:16px;fill:#000000;}@keyframes edge-animation-frame{from{stroke-dashoffset:0;}}@keyframes dash{to{stroke-dashoffset:0;}}#mermaid-f9b511c7-5fd6-413d-9a6e-7c949a410653 .edge-animation-slow{stroke-dasharray:9,5!important;stroke-dashoffset:900;animation:dash 50s linear infinite;stroke-linecap:round;}#mermaid-f9b511c7-5fd6-413d-9a6e-7c949a410653 .edge-animation-fast{stroke-dasharray:9,5!important;stroke-dashoffset:900;animation:dash 20s linear infinite;stroke-linecap:round;}#mermaid-f9b511c7-5fd6-413d-9a6e-7c949a410653 .error-icon{fill:#552222;}#mermaid-f9b511c7-5fd6-413d-9a6e-7c949a410653 .error-text{fill:#552222;stroke:#552222;}#mermaid-f9b511c7-5fd6-413d-9a6e-7c949a410653 .edge-thickness-normal{stroke-width:1px;}#mermaid-f9b511c7-5fd6-413d-9a6e-7c949a410653 .edge-thickness-thick{stroke-width:3.5px;}#mermaid-f9b511c7-5fd6-413d-9a6e-7c949a410653 .edge-pattern-solid{stroke-dasharray:0;}#mermaid-f9b511c7-5fd6-413d-9a6e-7c949a410653 .edge-thickness-invisible{stroke-width:0;fill:none;}#mermaid-f9b511c7-5fd6-413d-9a6e-7c949a410653 .edge-pattern-dashed{stroke-dasharray:3;}#mermaid-f9b511c7-5fd6-413d-9a6e-7c949a410653 .edge-pattern-dotted{stroke-dasharray:2;}#mermaid-f9b511c7-5fd6-413d-9a6e-7c949a410653 .marker{fill:#666;stroke:#666;}#mermaid-f9b511c7-5fd6-413d-9a6e-7c949a410653 .marker.cross{stroke:#666;}#mermaid-f9b511c7-5fd6-413d-9a6e-7c949a410653 svg{font-family:ui-sans-serif,-apple-system,BlinkMacSystemFont,"Segoe UI Variable Display","Segoe UI",Helvetica,"Apple Color Emoji","Noto Sans Arabic","Noto Sans Hebrew",Arial,sans-serif,"Segoe UI Emoji","Segoe UI Symbol";font-size:16px;}#mermaid-f9b511c7-5fd6-413d-9a6e-7c949a410653 p{margin:0;}#mermaid-f9b511c7-5fd6-413d-9a6e-7c949a410653 .actor{stroke:hsl(0, 0%, 83%);fill:#eee;}#mermaid-f9b511c7-5fd6-413d-9a6e-7c949a410653 text.actor&gt;tspan{fill:#333;stroke:none;}#mermaid-f9b511c7-5fd6-413d-9a6e-7c949a410653 .actor-line{stroke:hsl(0, 0%, 83%);}#mermaid-f9b511c7-5fd6-413d-9a6e-7c949a410653 .messageLine0{stroke-width:1.5;stroke-dasharray:none;stroke:#333;}#mermaid-f9b511c7-5fd6-413d-9a6e-7c949a410653 .messageLine1{stroke-width:1.5;stroke-dasharray:2,2;stroke:#333;}#mermaid-f9b511c7-5fd6-413d-9a6e-7c949a410653 #arrowhead path{fill:#333;stroke:#333;}#mermaid-f9b511c7-5fd6-413d-9a6e-7c949a410653 .sequenceNumber{fill:white;}#mermaid-f9b511c7-5fd6-413d-9a6e-7c949a410653 #sequencenumber{fill:#333;}#mermaid-f9b511c7-5fd6-413d-9a6e-7c949a410653 #crosshead path{fill:#333;stroke:#333;}#mermaid-f9b511c7-5fd6-413d-9a6e-7c949a410653 .messageText{fill:#333;stroke:none;}#mermaid-f9b511c7-5fd6-413d-9a6e-7c949a410653 .labelBox{stroke:hsl(0, 0%, 83%);fill:#eee;}#mermaid-f9b511c7-5fd6-413d-9a6e-7c949a410653 .labelText,#mermaid-f9b511c7-5fd6-413d-9a6e-7c949a410653 .labelText&gt;tspan{fill:#333;stroke:none;}#mermaid-f9b511c7-5fd6-413d-9a6e-7c949a410653 .loopText,#mermaid-f9b511c7-5fd6-413d-9a6e-7c949a410653 .loopText&gt;tspan{fill:#333;stroke:none;}#mermaid-f9b511c7-5fd6-413d-9a6e-7c949a410653 .loopLine{stroke-width:2px;stroke-dasharray:2,2;stroke:hsl(0, 0%, 83%);fill:hsl(0, 0%, 83%);}#mermaid-f9b511c7-5fd6-413d-9a6e-7c949a410653 .note{stroke:#999;fill:#666;}#mermaid-f9b511c7-5fd6-413d-9a6e-7c949a410653 .noteText,#mermaid-f9b511c7-5fd6-413d-9a6e-7c949a410653 .noteText&gt;tspan{fill:#fff;stroke:none;}#mermaid-f9b511c7-5fd6-413d-9a6e-7c949a410653 .activation0{fill:#f4f4f4;stroke:#666;}#mermaid-f9b511c7-5fd6-413d-9a6e-7c949a410653 .activation1{fill:#f4f4f4;stroke:#666;}#mermaid-f9b511c7-5fd6-413d-9a6e-7c949a410653 .activation2{fill:#f4f4f4;stroke:#666;}#mermaid-f9b511c7-5fd6-413d-9a6e-7c949a410653 .actorPopupMenu{position:absolute;}#mermaid-f9b511c7-5fd6-413d-9a6e-7c949a410653 .actorPopupMenuPanel{position:absolute;fill:#eee;box-shadow:0px 8px 16px 0px rgba(0,0,0,0.2);filter:drop-shadow(3px 5px 2px rgb(0 0 0 / 0.4));}#mermaid-f9b511c7-5fd6-413d-9a6e-7c949a410653 .actor-man line{stroke:hsl(0, 0%, 83%);fill:#eee;}#mermaid-f9b511c7-5fd6-413d-9a6e-7c949a410653 .actor-man circle,#mermaid-f9b511c7-5fd6-413d-9a6e-7c949a410653 line{stroke:hsl(0, 0%, 83%);fill:#eee;stroke-width:2px;}#mermaid-f9b511c7-5fd6-413d-9a6e-7c949a410653 :root{--mermaid-font-family:"trebuchet ms",verdana,arial,sans-serif;}</style><g/><defs><symbol id="computer" width="24" height="24"><path transform="scale(.5)" d="M2 2v13h20v-13h-20zm18 11h-16v-9h16v9zm-10.228 6l.466-1h3.524l.467 1h-4.457zm14.228 3h-24l2-6h2.104l-1.33 4h18.45l-1.297-4h2.073l2 6zm-5-10h-14v-7h14v7z"/></symbol></defs><defs><symbol id="database" fill-rule="evenodd" clip-rule="evenodd"><path transform="scale(.5)" d="M12.258.001l.256.004.255.005.253.008.251.01.249.012.247.015.246.016.242.019.241.02.239.023.236.024.233.027.231.028.229.031.225.032.223.034.22.036.217.038.214.04.211.041.208.043.205.045.201.046.198.048.194.05.191.051.187.053.183.054.18.056.175.057.172.059.168.06.163.061.16.063.155.064.15.066.074.033.073.033.071.034.07.034.069.035.068.035.067.035.066.035.064.036.064.036.062.036.06.036.06.037.058.037.058.037.055.038.055.038.053.038.052.038.051.039.05.039.048.039.047.039.045.04.044.04.043.04.041.04.04.041.039.041.037.041.036.041.034.041.033.042.032.042.03.042.029.042.027.042.026.043.024.043.023.043.021.043.02.043.018.044.017.043.015.044.013.044.012.044.011.045.009.044.007.045.006.045.004.045.002.045.001.045v17l-.001.045-.002.045-.004.045-.006.045-.007.045-.009.044-.011.045-.012.044-.013.044-.015.044-.017.043-.018.044-.02.043-.021.043-.023.043-.024.043-.026.043-.027.042-.029.042-.03.042-.032.042-.033.042-.034.041-.036.041-.037.041-.039.041-.04.041-.041.04-.043.04-.044.04-.045.04-.047.039-.048.039-.05.039-.051.039-.052.038-.053.038-.055.038-.055.038-.058.037-.058.037-.06.037-.06.036-.062.036-.064.036-.064.036-.066.035-.067.035-.068.035-.069.035-.07.034-.071.034-.073.033-.074.033-.15.066-.155.064-.16.063-.163.061-.168.06-.172.059-.175.057-.18.056-.183.054-.187.053-.191.051-.194.05-.198.048-.201.046-.205.045-.208.043-.211.041-.214.04-.217.038-.22.036-.223.034-.225.032-.229.031-.231.028-.233.027-.236.024-.239.023-.241.02-.242.019-.246.016-.247.015-.249.012-.251.01-.253.008-.255.005-.256.004-.258.001-.258-.001-.256-.004-.255-.005-.253-.008-.251-.01-.249-.012-.247-.015-.245-.016-.243-.019-.241-.02-.238-.023-.236-.024-.234-.027-.231-.028-.228-.031-.226-.032-.223-.034-.22-.036-.217-.038-.214-.04-.211-.041-.208-.043-.204-.045-.201-.046-.198-.048-.195-.05-.19-.051-.187-.053-.184-.054-.179-.056-.176-.057-.172-.059-.167-.06-.164-.061-.159-.063-.155-.064-.151-.066-.074-.033-.072-.033-.072-.034-.07-.034-.069-.035-.068-.035-.067-.035-.066-.035-.064-.036-.063-.036-.062-.036-.061-.036-.06-.037-.058-.037-.057-.037-.056-.038-.055-.038-.053-.038-.052-.038-.051-.039-.049-.039-.049-.039-.046-.039-.046-.04-.044-.04-.043-.04-.041-.04-.04-.041-.039-.041-.037-.041-.036-.041-.034-.041-.033-.042-.032-.042-.03-.042-.029-.042-.027-.042-.026-.043-.024-.043-.023-.043-.021-.043-.02-.043-.018-.044-.017-.043-.015-.044-.013-.044-.012-.044-.011-.045-.009-.044-.007-.045-.006-.045-.004-.045-.002-.045-.001-.045v-17l.001-.045.002-.045.004-.045.006-.045.007-.045.009-.044.011-.045.012-.044.013-.044.015-.044.017-.043.018-.044.02-.043.021-.043.023-.043.024-.043.026-.043.027-.042.029-.042.03-.042.032-.042.033-.042.034-.041.036-.041.037-.041.039-.041.04-.041.041-.04.043-.04.044-.04.046-.04.046-.039.049-.039.049-.039.051-.039.052-.038.053-.038.055-.038.056-.038.057-.037.058-.037.06-.037.061-.036.062-.036.063-.036.064-.036.066-.035.067-.035.068-.035.069-.035.07-.034.072-.034.072-.033.074-.033.151-.066.155-.064.159-.063.164-.061.167-.06.172-.059.176-.057.179-.056.184-.054.187-.053.19-.051.195-.05.198-.048.201-.046.204-.045.208-.043.211-.041.214-.04.217-.038.22-.036.223-.034.226-.032.228-.031.231-.028.234-.027.236-.024.238-.023.241-.02.243-.019.245-.016.247-.015.249-.012.251-.01.253-.008.255-.005.256-.004.258-.001.258.001zm-9.258 20.499v.01l.001.021.003.021.004.022.005.021.006.022.007.022.009.023.01.022.011.023.012.023.013.023.015.023.016.024.017.023.018.024.019.024.021.024.022.025.023.024.024.025.052.049.056.05.061.051.066.051.07.051.075.051.079.052.084.052.088.052.092.052.097.052.102.051.105.052.11.052.114.051.119.051.123.051.127.05.131.05.135.05.139.048.144.049.147.047.152.047.155.047.16.045.163.045.167.043.171.043.176.041.178.041.183.039.187.039.19.037.194.035.197.035.202.033.204.031.209.03.212.029.216.027.219.025.222.024.226.021.23.02.233.018.236.016.24.015.243.012.246.01.249.008.253.005.256.004.259.001.26-.001.257-.004.254-.005.25-.008.247-.011.244-.012.241-.014.237-.016.233-.018.231-.021.226-.021.224-.024.22-.026.216-.027.212-.028.21-.031.205-.031.202-.034.198-.034.194-.036.191-.037.187-.039.183-.04.179-.04.175-.042.172-.043.168-.044.163-.045.16-.046.155-.046.152-.047.148-.048.143-.049.139-.049.136-.05.131-.05.126-.05.123-.051.118-.052.114-.051.11-.052.106-.052.101-.052.096-.052.092-.052.088-.053.083-.051.079-.052.074-.052.07-.051.065-.051.06-.051.056-.05.051-.05.023-.024.023-.025.021-.024.02-.024.019-.024.018-.024.017-.024.015-.023.014-.024.013-.023.012-.023.01-.023.01-.022.008-.022.006-.022.006-.022.004-.022.004-.021.001-.021.001-.021v-4.127l-.077.055-.08.053-.083.054-.085.053-.087.052-.09.052-.093.051-.095.05-.097.05-.1.049-.102.049-.105.048-.106.047-.109.047-.111.046-.114.045-.115.045-.118.044-.12.043-.122.042-.124.042-.126.041-.128.04-.13.04-.132.038-.134.038-.135.037-.138.037-.139.035-.142.035-.143.034-.144.033-.147.032-.148.031-.15.03-.151.03-.153.029-.154.027-.156.027-.158.026-.159.025-.161.024-.162.023-.163.022-.165.021-.166.02-.167.019-.169.018-.169.017-.171.016-.173.015-.173.014-.175.013-.175.012-.177.011-.178.01-.179.008-.179.008-.181.006-.182.005-.182.004-.184.003-.184.002h-.37l-.184-.002-.184-.003-.182-.004-.182-.005-.181-.006-.179-.008-.179-.008-.178-.01-.176-.011-.176-.012-.175-.013-.173-.014-.172-.015-.171-.016-.17-.017-.169-.018-.167-.019-.166-.02-.165-.021-.163-.022-.162-.023-.161-.024-.159-.025-.157-.026-.156-.027-.155-.027-.153-.029-.151-.03-.15-.03-.148-.031-.146-.032-.145-.033-.143-.034-.141-.035-.14-.035-.137-.037-.136-.037-.134-.038-.132-.038-.13-.04-.128-.04-.126-.041-.124-.042-.122-.042-.12-.044-.117-.043-.116-.045-.113-.045-.112-.046-.109-.047-.106-.047-.105-.048-.102-.049-.1-.049-.097-.05-.095-.05-.093-.052-.09-.051-.087-.052-.085-.053-.083-.054-.08-.054-.077-.054v4.127zm0-5.654v.011l.001.021.003.021.004.021.005.022.006.022.007.022.009.022.01.022.011.023.012.023.013.023.015.024.016.023.017.024.018.024.019.024.021.024.022.024.023.025.024.024.052.05.056.05.061.05.066.051.07.051.075.052.079.051.084.052.088.052.092.052.097.052.102.052.105.052.11.051.114.051.119.052.123.05.127.051.131.05.135.049.139.049.144.048.147.048.152.047.155.046.16.045.163.045.167.044.171.042.176.042.178.04.183.04.187.038.19.037.194.036.197.034.202.033.204.032.209.03.212.028.216.027.219.025.222.024.226.022.23.02.233.018.236.016.24.014.243.012.246.01.249.008.253.006.256.003.259.001.26-.001.257-.003.254-.006.25-.008.247-.01.244-.012.241-.015.237-.016.233-.018.231-.02.226-.022.224-.024.22-.025.216-.027.212-.029.21-.03.205-.032.202-.033.198-.035.194-.036.191-.037.187-.039.183-.039.179-.041.175-.042.172-.043.168-.044.163-.045.16-.045.155-.047.152-.047.148-.048.143-.048.139-.05.136-.049.131-.05.126-.051.123-.051.118-.051.114-.052.11-.052.106-.052.101-.052.096-.052.092-.052.088-.052.083-.052.079-.052.074-.051.07-.052.065-.051.06-.05.056-.051.051-.049.023-.025.023-.024.021-.025.02-.024.019-.024.018-.024.017-.024.015-.023.014-.023.013-.024.012-.022.01-.023.01-.023.008-.022.006-.022.006-.022.004-.021.004-.022.001-.021.001-.021v-4.139l-.077.054-.08.054-.083.054-.085.052-.087.053-.09.051-.093.051-.095.051-.097.05-.1.049-.102.049-.105.048-.106.047-.109.047-.111.046-.114.045-.115.044-.118.044-.12.044-.122.042-.124.042-.126.041-.128.04-.13.039-.132.039-.134.038-.135.037-.138.036-.139.036-.142.035-.143.033-.144.033-.147.033-.148.031-.15.03-.151.03-.153.028-.154.028-.156.027-.158.026-.159.025-.161.024-.162.023-.163.022-.165.021-.166.02-.167.019-.169.018-.169.017-.171.016-.173.015-.173.014-.175.013-.175.012-.177.011-.178.009-.179.009-.179.007-.181.007-.182.005-.182.004-.184.003-.184.002h-.37l-.184-.002-.184-.003-.182-.004-.182-.005-.181-.007-.179-.007-.179-.009-.178-.009-.176-.011-.176-.012-.175-.013-.173-.014-.172-.015-.171-.016-.17-.017-.169-.018-.167-.019-.166-.02-.165-.021-.163-.022-.162-.023-.161-.024-.159-.025-.157-.026-.156-.027-.155-.028-.153-.028-.151-.03-.15-.03-.148-.031-.146-.033-.145-.033-.143-.033-.141-.035-.14-.036-.137-.036-.136-.037-.134-.038-.132-.039-.13-.039-.128-.04-.126-.041-.124-.042-.122-.043-.12-.043-.117-.044-.116-.044-.113-.046-.112-.046-.109-.046-.106-.047-.105-.048-.102-.049-.1-.049-.097-.05-.095-.051-.093-.051-.09-.051-.087-.053-.085-.052-.083-.054-.08-.054-.077-.054v4.139zm0-5.666v.011l.001.02.003.022.004.021.005.022.006.021.007.022.009.023.01.022.011.023.012.023.013.023.015.023.016.024.017.024.018.023.019.024.021.025.022.024.023.024.024.025.052.05.056.05.061.05.066.051.07.051.075.052.079.051.084.052.088.052.092.052.097.052.102.052.105.051.11.052.114.051.119.051.123.051.127.05.131.05.135.05.139.049.144.048.147.048.152.047.155.046.16.045.163.045.167.043.171.043.176.042.178.04.183.04.187.038.19.037.194.036.197.034.202.033.204.032.209.03.212.028.216.027.219.025.222.024.226.021.23.02.233.018.236.017.24.014.243.012.246.01.249.008.253.006.256.003.259.001.26-.001.257-.003.254-.006.25-.008.247-.01.244-.013.241-.014.237-.016.233-.018.231-.02.226-.022.224-.024.22-.025.216-.027.212-.029.21-.03.205-.032.202-.033.198-.035.194-.036.191-.037.187-.039.183-.039.179-.041.175-.042.172-.043.168-.044.163-.045.16-.045.155-.047.152-.047.148-.048.143-.049.139-.049.136-.049.131-.051.126-.05.123-.051.118-.052.114-.051.11-.052.106-.052.101-.052.096-.052.092-.052.088-.052.083-.052.079-.052.074-.052.07-.051.065-.051.06-.051.056-.05.051-.049.023-.025.023-.025.021-.024.02-.024.019-.024.018-.024.017-.024.015-.023.014-.024.013-.023.012-.023.01-.022.01-.023.008-.022.006-.022.006-.022.004-.022.004-.021.001-.021.001-.021v-4.153l-.077.054-.08.054-.083.053-.085.053-.087.053-.09.051-.093.051-.095.051-.097.05-.1.049-.102.048-.105.048-.106.048-.109.046-.111.046-.114.046-.115.044-.118.044-.12.043-.122.043-.124.042-.126.041-.128.04-.13.039-.132.039-.134.038-.135.037-.138.036-.139.036-.142.034-.143.034-.144.033-.147.032-.148.032-.15.03-.151.03-.153.028-.154.028-.156.027-.158.026-.159.024-.161.024-.162.023-.163.023-.165.021-.166.02-.167.019-.169.018-.169.017-.171.016-.173.015-.173.014-.175.013-.175.012-.177.01-.178.01-.179.009-.179.007-.181.006-.182.006-.182.004-.184.003-.184.001-.185.001-.185-.001-.184-.001-.184-.003-.182-.004-.182-.006-.181-.006-.179-.007-.179-.009-.178-.01-.176-.01-.176-.012-.175-.013-.173-.014-.172-.015-.171-.016-.17-.017-.169-.018-.167-.019-.166-.02-.165-.021-.163-.023-.162-.023-.161-.024-.159-.024-.157-.026-.156-.027-.155-.028-.153-.028-.151-.03-.15-.03-.148-.032-.146-.032-.145-.033-.143-.034-.141-.034-.14-.036-.137-.036-.136-.037-.134-.038-.132-.039-.13-.039-.128-.041-.126-.041-.124-.041-.122-.043-.12-.043-.117-.044-.116-.044-.113-.046-.112-.046-.109-.046-.106-.048-.105-.048-.102-.048-.1-.05-.097-.049-.095-.051-.093-.051-.09-.052-.087-.052-.085-.053-.083-.053-.08-.054-.077-.054v4.153zm8.74-8.179l-.257.004-.254.005-.25.008-.247.011-.244.012-.241.014-.237.016-.233.018-.231.021-.226.022-.224.023-.22.026-.216.027-.212.028-.21.031-.205.032-.202.033-.198.034-.194.036-.191.038-.187.038-.183.04-.179.041-.175.042-.172.043-.168.043-.163.045-.16.046-.155.046-.152.048-.148.048-.143.048-.139.049-.136.05-.131.05-.126.051-.123.051-.118.051-.114.052-.11.052-.106.052-.101.052-.096.052-.092.052-.088.052-.083.052-.079.052-.074.051-.07.052-.065.051-.06.05-.056.05-.051.05-.023.025-.023.024-.021.024-.02.025-.019.024-.018.024-.017.023-.015.024-.014.023-.013.023-.012.023-.01.023-.01.022-.008.022-.006.023-.006.021-.004.022-.004.021-.001.021-.001.021.001.021.001.021.004.021.004.022.006.021.006.023.008.022.01.022.01.023.012.023.013.023.014.023.015.024.017.023.018.024.019.024.02.025.021.024.023.024.023.025.051.05.056.05.06.05.065.051.07.052.074.051.079.052.083.052.088.052.092.052.096.052.101.052.106.052.11.052.114.052.118.051.123.051.126.051.131.05.136.05.139.049.143.048.148.048.152.048.155.046.16.046.163.045.168.043.172.043.175.042.179.041.183.04.187.038.191.038.194.036.198.034.202.033.205.032.21.031.212.028.216.027.22.026.224.023.226.022.231.021.233.018.237.016.241.014.244.012.247.011.25.008.254.005.257.004.26.001.26-.001.257-.004.254-.005.25-.008.247-.011.244-.012.241-.014.237-.016.233-.018.231-.021.226-.022.224-.023.22-.026.216-.027.212-.028.21-.031.205-.032.202-.033.198-.034.194-.036.191-.038.187-.038.183-.04.179-.041.175-.042.172-.043.168-.043.163-.045.16-.046.155-.046.152-.048.148-.048.143-.048.139-.049.136-.05.131-.05.126-.051.123-.051.118-.051.114-.052.11-.052.106-.052.101-.052.096-.052.092-.052.088-.052.083-.052.079-.052.074-.051.07-.052.065-.051.06-.05.056-.05.051-.05.023-.025.023-.024.021-.024.02-.025.019-.024.018-.024.017-.023.015-.024.014-.023.013-.023.012-.023.01-.023.01-.022.008-.022.006-.023.006-.021.004-.022.004-.021.001-.021.001-.021-.001-.021-.001-.021-.004-.021-.004-.022-.006-.021-.006-.023-.008-.022-.01-.022-.01-.023-.012-.023-.013-.023-.014-.023-.015-.024-.017-.023-.018-.024-.019-.024-.02-.025-.021-.024-.023-.024-.023-.025-.051-.05-.056-.05-.06-.05-.065-.051-.07-.052-.074-.051-.079-.052-.083-.052-.088-.052-.092-.052-.096-.052-.101-.052-.106-.052-.11-.052-.114-.052-.118-.051-.123-.051-.126-.051-.131-.05-.136-.05-.139-.049-.143-.048-.148-.048-.152-.048-.155-.046-.16-.046-.163-.045-.168-.043-.172-.043-.175-.042-.179-.041-.183-.04-.187-.038-.191-.038-.194-.036-.198-.034-.202-.033-.205-.032-.21-.031-.212-.028-.216-.027-.22-.026-.224-.023-.226-.022-.231-.021-.233-.018-.237-.016-.241-.014-.244-.012-.247-.011-.25-.008-.254-.005-.257-.004-.26-.001-.26.001z"/></symbol></defs><defs><symbol id="clock" width="24" height="24"><path transform="scale(.5)" d="M12 2c5.514 0 10 4.486 10 10s-4.486 10-10 10-10-4.486-10-10 4.486-10 10-10zm0-2c-6.627 0-12 5.373-12 12s5.373 12 12 12 12-5.373 12-12-5.373-12-12-12zm5.848 12.459c.202.038.202.333.001.372-1.907.361-6.045 1.111-6.547 1.111-.719 0-1.301-.582-1.301-1.301 0-.512.77-5.447 1.125-7.445.034-.192.312-.181.343.014l.985 6.238 5.394 1.011z"/></symbol></defs><defs><marker id="arrowhead" refX="7.9" refY="5" markerUnits="userSpaceOnUse" markerWidth="12" markerHeight="12" orient="auto-start-reverse"><path d="M -1 0 L 10 5 L 0 10 z"/></marker></defs><defs><marker id="crosshead" markerWidth="15" markerHeight="8" orient="auto" refX="4" refY="4.5"><path fill="none" stroke="#000000" stroke-width="1pt" d="M 1,2 L 6,7 M 6,2 L 1,7" style="stroke-dasharray: 0, 0;"/></marker></defs><defs><marker id="filled-head" refX="15.5" refY="7" markerWidth="20" markerHeight="28" orient="auto"><path d="M 18,7 L9,13 L14,7 L9,1 Z"/></marker></defs><defs><marker id="sequencenumber" refX="15" refY="15" markerWidth="60" markerHeight="40" orient="auto"><circle cx="15" cy="15" r="6"/></marker></defs><g><rect x="765" y="103" fill="#EDF2AE" stroke="#666" width="2132.5" height="41" class="note"/><text x="1831" y="108" text-anchor="middle" dominant-baseline="middle" alignment-baseline="middle" class="noteText" dy="1em" style="font-size: 16px; font-weight: 400;"><tspan x="1831">[Background — Dex] Web2Json FDC round attests Deribit mark_iv every ~5 min</tspan></text></g><g><rect x="1396.5" y="154" fill="#EDF2AE" stroke="#666" width="2065.5" height="41" class="note"/><text x="2429" y="159" text-anchor="middle" dominant-baseline="middle" alignment-baseline="middle" class="noteText" dy="1em" style="font-size: 16px; font-weight: 400;"><tspan x="2429">[Pre-work — Hamza] FCE registered on Coston2 via 7-step flow (LOCAL_MODE=false)</tspan></text></g><g><rect x="55" y="205" fill="#EDF2AE" stroke="#666" width="533.5" height="41" class="note"/><text x="322" y="210" text-anchor="middle" dominant-baseline="middle" alignment-baseline="middle" class="noteText" dy="1em" style="font-size: 16px; font-weight: 400;"><tspan x="322">1 — XRPL Taker Intent</tspan></text></g><g><rect x="538.5" y="320" fill="#EDF2AE" stroke="#666" width="2359" height="41" class="note"/><text x="1718" y="325" text-anchor="middle" dominant-baseline="middle" alignment-baseline="middle" class="noteText" dy="1em" style="font-size: 16px; font-weight: 400;"><tspan x="1718">2 — FDC Payment Attestation</tspan></text></g><g><rect x="2797.5" y="417" fill="#EDF2AE" stroke="#666" width="150" height="41" class="note"/><text x="2873" y="422" text-anchor="middle" dominant-baseline="middle" alignment-baseline="middle" class="noteText" dy="1em" style="font-size: 16px; font-weight: 400;"><tspan x="2873">~90–180 s</tspan></text></g><g><rect x="538.5" y="514" fill="#EDF2AE" stroke="#666" width="2559" height="41" class="note"/><text x="1818" y="519" text-anchor="middle" dominant-baseline="middle" alignment-baseline="middle" class="noteText" dy="1em" style="font-size: 16px; font-weight: 400;"><tspan x="1818">3 — RFQ Broadcast</tspan></text></g><g><rect x="1396.5" y="703" fill="#EDF2AE" stroke="#666" width="540" height="41" class="note"/><text x="1667" y="708" text-anchor="middle" dominant-baseline="middle" alignment-baseline="middle" class="noteText" dy="1em" style="font-size: 16px; font-weight: 400;"><tspan x="1667">4 — Pricing Inputs</tspan></text></g><g><rect x="1278" y="1030" fill="#EDF2AE" stroke="#666" width="287" height="41" class="note"/><text x="1422" y="1035" text-anchor="middle" dominant-baseline="middle" alignment-baseline="middle" class="noteText" dy="1em" style="font-size: 16px; font-weight: 400;"><tspan x="1422">5 — Compute inside Intel TDX enclave</tspan></text></g><g><rect x="1103" y="1345" fill="#EDF2AE" stroke="#666" width="343.5" height="41" class="note"/><text x="1275" y="1350" text-anchor="middle" dominant-baseline="middle" alignment-baseline="middle" class="noteText" dy="1em" style="font-size: 16px; font-weight: 400;"><tspan x="1275">6 — Quote Response + On-Chain Proof</tspan></text></g><g><rect x="538.5" y="1552" fill="#EDF2AE" stroke="#666" width="2559" height="41" class="note"/><text x="1818" y="1557" text-anchor="middle" dominant-baseline="middle" alignment-baseline="middle" class="noteText" dy="1em" style="font-size: 16px; font-weight: 400;"><tspan x="1818">7 — Quote Delivery</tspan></text></g><g><rect x="538.5" y="1649" fill="#EDF2AE" stroke="#666" width="2923.5" height="41" class="note"/><text x="2000" y="1654" text-anchor="middle" dominant-baseline="middle" alignment-baseline="middle" class="noteText" dy="1em" style="font-size: 16px; font-weight: 400;"><tspan x="2000">8 — On-Chain Attestation Verification</tspan></text></g><g><rect x="538.5" y="2038" fill="#EDF2AE" stroke="#666" width="1802" height="41" class="note"/><text x="1440" y="2043" text-anchor="middle" dominant-baseline="middle" alignment-baseline="middle" class="noteText" dy="1em" style="font-size: 16px; font-weight: 400;"><tspan x="1440">9 — Settlement</tspan></text></g><g><rect x="538.5" y="2181" fill="#EDF2AE" stroke="#666" width="614.5" height="41" class="note"/><text x="846" y="2186" text-anchor="middle" dominant-baseline="middle" alignment-baseline="middle" class="noteText" dy="1em" style="font-size: 16px; font-weight: 400;"><tspan x="846">10 — Settlement Confirmation</tspan></text></g><text x="320" y="261" text-anchor="middle" dominant-baseline="middle" alignment-baseline="middle" class="messageText" dy="1em" style="font-size: 16px; font-weight: 400;">XRP Payment (Xaman wallet)</text><text x="320" y="282" text-anchor="middle" dominant-baseline="middle" alignment-baseline="middle" class="messageText" dy="1em" style="font-size: 16px; font-weight: 400;">memo 0xff: action=RFQ | fXRP | strike | expiry | isPut | qty</text><line x1="81" y1="310" x2="559.5" y2="310" class="messageLine0" stroke-width="2" stroke="none" marker-end="url(#arrowhead)" style="fill: none;"/><text x="1717" y="376" text-anchor="middle" dominant-baseline="middle" alignment-baseline="middle" class="messageText" dy="1em" style="font-size: 16px; font-weight: 400;">Submit XRP Payment for attestation</text><line x1="564.5" y1="407" x2="2868.5" y2="407" class="messageLine0" stroke-width="2" stroke="none" marker-end="url(#arrowhead)" style="fill: none;"/><text x="1720" y="473" text-anchor="middle" dominant-baseline="middle" alignment-baseline="middle" class="messageText" dy="1em" style="font-size: 16px; font-weight: 400;">Payment confirmed · memo decoded on-chain</text><line x1="2871.5" y1="504" x2="567.5" y2="504" class="messageLine1" stroke-width="2" stroke="none" marker-end="url(#arrowhead)" style="stroke-dasharray: 3, 3; fill: none;"/><text x="1236" y="570" text-anchor="middle" dominant-baseline="middle" alignment-baseline="middle" class="messageText" dy="1em" style="font-size: 16px; font-weight: 400;">Forward decoded intent (strike, expiry, isPut, qty)</text><line x1="564.5" y1="601" x2="1907.5" y2="601" class="messageLine0" stroke-width="2" stroke="none" marker-end="url(#arrowhead)" style="fill: none;"/><text x="2491" y="616" text-anchor="middle" dominant-baseline="middle" alignment-baseline="middle" class="messageText" dy="1em" style="font-size: 16px; font-weight: 400;">Broadcast RFQ (asset=fXRP)</text><line x1="1912.5" y1="647" x2="3068.5" y2="647" class="messageLine0" stroke-width="2" stroke="none" marker-end="url(#arrowhead)" style="fill: none;"/><text x="2249" y="662" text-anchor="middle" dominant-baseline="middle" alignment-baseline="middle" class="messageText" dy="1em" style="font-size: 16px; font-weight: 400;">RFQ via WebSocket /rfqs/assetAddress</text><line x1="3071.5" y1="693" x2="1425.5" y2="693" class="messageLine1" stroke-width="2" stroke="none" marker-end="url(#arrowhead)" style="stroke-dasharray: 3, 3; fill: none;"/><text x="1977" y="759" text-anchor="middle" dominant-baseline="middle" alignment-baseline="middle" class="messageText" dy="1em" style="font-size: 16px; font-weight: 400;">getFeedByIdInWei(XRP/USD)</text><line x1="1422.5" y1="790" x2="2530.5" y2="790" class="messageLine0" stroke-width="2" stroke="none" marker-end="url(#arrowhead)" style="fill: none;"/><text x="1980" y="805" text-anchor="middle" dominant-baseline="middle" alignment-baseline="middle" class="messageText" dy="1em" style="font-size: 16px; font-weight: 400;">S0 — spot price (~1.8 s cadence)</text><line x1="2533.5" y1="836" x2="1425.5" y2="836" class="messageLine1" stroke-width="2" stroke="none" marker-end="url(#arrowhead)" style="stroke-dasharray: 3, 3; fill: none;"/><text x="1107" y="851" text-anchor="middle" dominant-baseline="middle" alignment-baseline="middle" class="messageText" dy="1em" style="font-size: 16px; font-weight: 400;">Read attested mark_iv (on-chain FDC result)</text><line x1="1420.5" y1="882" x2="794" y2="882" class="messageLine0" stroke-width="2" stroke="none" marker-end="url(#arrowhead)" style="fill: none;"/><text x="1104" y="897" text-anchor="middle" dominant-baseline="middle" alignment-baseline="middle" class="messageText" dy="1em" style="font-size: 16px; font-weight: 400;">sigma — implied vol (FDC-attested)</text><line x1="791" y1="928" x2="1417.5" y2="928" class="messageLine1" stroke-width="2" stroke="none" marker-end="url(#arrowhead)" style="stroke-dasharray: 3, 3; fill: none;"/><text x="1665" y="943" text-anchor="middle" dominant-baseline="middle" alignment-baseline="middle" class="messageText" dy="1em" style="font-size: 16px; font-weight: 400;">Read on-chain SecureRandom seed</text><line x1="1422.5" y1="974" x2="1907.5" y2="974" class="messageLine0" stroke-width="2" stroke="none" marker-end="url(#arrowhead)" style="fill: none;"/><text x="1668" y="989" text-anchor="middle" dominant-baseline="middle" alignment-baseline="middle" class="messageText" dy="1em" style="font-size: 16px; font-weight: 400;">seed (block-derived, stored on-chain, reproducible)</text><line x1="1910.5" y1="1020" x2="1425.5" y2="1020" class="messageLine1" stroke-width="2" stroke="none" marker-end="url(#arrowhead)" style="stroke-dasharray: 3, 3; fill: none;"/><text x="1423" y="1086" text-anchor="middle" dominant-baseline="middle" alignment-baseline="middle" class="messageText" dy="1em" style="font-size: 16px; font-weight: 400;">Monte Carlo GBM — 10k paths</text><text x="1423" y="1107" text-anchor="middle" dominant-baseline="middle" alignment-baseline="middle" class="messageText" dy="1em" style="font-size: 16px; font-weight: 400;">call_price = e^(-rT) · E[max(S_T – K, 0)]</text><path d="M 1422.5,1135 C 1482.5,1125 1482.5,1165 1422.5,1155" class="messageLine0" stroke-width="2" stroke="none" marker-end="url(#arrowhead)" style="fill: none;"/><text x="1423" y="1180" text-anchor="middle" dominant-baseline="middle" alignment-baseline="middle" class="messageText" dy="1em" style="font-size: 16px; font-weight: 400;">Black-Scholes convergence check · delta = N(d1) · vega</text><path d="M 1422.5,1211 C 1482.5,1201 1482.5,1241 1422.5,1231" class="messageLine0" stroke-width="2" stroke="none" marker-end="url(#arrowhead)" style="fill: none;"/><text x="1423" y="1256" text-anchor="middle" dominant-baseline="middle" alignment-baseline="middle" class="messageText" dy="1em" style="font-size: 16px; font-weight: 400;">EIP-712 Quote signed with TEE-attested key</text><text x="1423" y="1277" text-anchor="middle" dominant-baseline="middle" alignment-baseline="middle" class="messageText" dy="1em" style="font-size: 16px; font-weight: 400;">domain: name=rysk · version=0.0.0 · validUntil=now+30s</text><path d="M 1422.5,1305 C 1482.5,1295 1482.5,1335 1422.5,1325" class="messageLine0" stroke-width="2" stroke="none" marker-end="url(#arrowhead)" style="fill: none;"/><text x="2246" y="1401" text-anchor="middle" dominant-baseline="middle" alignment-baseline="middle" class="messageText" dy="1em" style="font-size: 16px; font-weight: 400;">Submit signed Quote (ryskV12_py /maker WebSocket)</text><line x1="1422.5" y1="1432" x2="3068.5" y2="1432" class="messageLine0" stroke-width="2" stroke="none" marker-end="url(#arrowhead)" style="fill: none;"/><text x="1665" y="1447" text-anchor="middle" dominant-baseline="middle" alignment-baseline="middle" class="messageText" dy="1em" style="font-size: 16px; font-weight: 400;">Store attestation token + inputs on-chain</text><text x="1665" y="1468" text-anchor="middle" dominant-baseline="middle" alignment-baseline="middle" class="messageText" dy="1em" style="font-size: 16px; font-weight: 400;">(call_price_mc · BS · delta · vega · seed · extension hash)</text><line x1="1422.5" y1="1496" x2="1907.5" y2="1496" class="messageLine0" stroke-width="2" stroke="none" marker-end="url(#arrowhead)" style="fill: none;"/><text x="1521" y="1511" text-anchor="middle" dominant-baseline="middle" alignment-baseline="middle" class="messageText" dy="1em" style="font-size: 16px; font-weight: 400;">TeeInstructionsSent event (quote + proof)</text><line x1="1910.5" y1="1542" x2="1132" y2="1542" class="messageLine1" stroke-width="2" stroke="none" marker-end="url(#arrowhead)" style="stroke-dasharray: 3, 3; fill: none;"/><text x="1820" y="1608" text-anchor="middle" dominant-baseline="middle" alignment-baseline="middle" class="messageText" dy="1em" style="font-size: 16px; font-weight: 400;">Best Quote · signed · price · validUntil=now+30s</text><line x1="3071.5" y1="1639" x2="567.5" y2="1639" class="messageLine1" stroke-width="2" stroke="none" marker-end="url(#arrowhead)" style="stroke-dasharray: 3, 3; fill: none;"/><text x="1336" y="1705" text-anchor="middle" dominant-baseline="middle" alignment-baseline="middle" class="messageText" dy="1em" style="font-size: 16px; font-weight: 400;">Submit Quote for verification</text><line x1="564.5" y1="1736" x2="2107.5" y2="1736" class="messageLine0" stroke-width="2" stroke="none" marker-end="url(#arrowhead)" style="fill: none;"/><text x="2773" y="1751" text-anchor="middle" dominant-baseline="middle" alignment-baseline="middle" class="messageText" dy="1em" style="font-size: 16px; font-weight: 400;">Check TEE signing key</text><line x1="2112.5" y1="1782" x2="3433" y2="1782" class="messageLine0" stroke-width="2" stroke="none" marker-end="url(#arrowhead)" style="fill: none;"/><text x="2776" y="1797" text-anchor="middle" dominant-baseline="middle" alignment-baseline="middle" class="messageText" dy="1em" style="font-size: 16px; font-weight: 400;">Key registered ✓</text><line x1="3436" y1="1828" x2="2115.5" y2="1828" class="messageLine1" stroke-width="2" stroke="none" marker-end="url(#arrowhead)" style="stroke-dasharray: 3, 3; fill: none;"/><text x="2113" y="1843" text-anchor="middle" dominant-baseline="middle" alignment-baseline="middle" class="messageText" dy="1em" style="font-size: 16px; font-weight: 400;">Validate EIP-712 signature</text><path d="M 2112.5,1874 C 2172.5,1864 2172.5,1904 2112.5,1894" class="messageLine0" stroke-width="2" stroke="none" marker-end="url(#arrowhead)" style="fill: none;"/><text x="2113" y="1919" text-anchor="middle" dominant-baseline="middle" alignment-baseline="middle" class="messageText" dy="1em" style="font-size: 16px; font-weight: 400;">Price within slippage of FTSO + IV</text><path d="M 2112.5,1950 C 2172.5,1940 2172.5,1980 2112.5,1970" class="messageLine0" stroke-width="2" stroke="none" marker-end="url(#arrowhead)" style="fill: none;"/><text x="1339" y="1995" text-anchor="middle" dominant-baseline="middle" alignment-baseline="middle" class="messageText" dy="1em" style="font-size: 16px; font-weight: 400;">✅ Verified</text><line x1="2110.5" y1="2028" x2="567.5" y2="2028" class="messageLine1" stroke-width="2" stroke="none" marker-end="url(#arrowhead)" style="stroke-dasharray: 3, 3; fill: none;"/><text x="1438" y="2094" text-anchor="middle" dominant-baseline="middle" alignment-baseline="middle" class="messageText" dy="1em" style="font-size: 16px; font-weight: 400;">Accept quote · ERC20 approve → MMarket · lock fXRP collateral</text><line x1="564.5" y1="2125" x2="2311.5" y2="2125" class="messageLine0" stroke-width="2" stroke="none" marker-end="url(#arrowhead)" style="fill: none;"/><text x="1441" y="2140" text-anchor="middle" dominant-baseline="middle" alignment-baseline="middle" class="messageText" dy="1em" style="font-size: 16px; font-weight: 400;">ERC20 option token minted to taker</text><line x1="2314.5" y1="2171" x2="567.5" y2="2171" class="messageLine1" stroke-width="2" stroke="none" marker-end="url(#arrowhead)" style="stroke-dasharray: 3, 3; fill: none;"/><text x="844" y="2237" text-anchor="middle" dominant-baseline="middle" alignment-baseline="middle" class="messageText" dy="1em" style="font-size: 16px; font-weight: 400;">Settlement event (status · token address)</text><line x1="564.5" y1="2268" x2="1124" y2="2268" class="messageLine1" stroke-width="2" stroke="none" marker-end="url(#arrowhead)" style="stroke-dasharray: 3, 3; fill: none;"/><text x="1129" y="2283" text-anchor="middle" dominant-baseline="middle" alignment-baseline="middle" class="messageText" dy="1em" style="font-size: 16px; font-weight: 400;">RFQ timeline · fairness panel (MC vs BS · delta · vega · seed)</text><text x="1129" y="2304" text-anchor="middle" dominant-baseline="middle" alignment-baseline="middle" class="messageText" dy="1em" style="font-size: 16px; font-weight: 400;">attestation deeplink (extension hash) · historical feed updated</text><path d="M 1129,2332 C 1189,2322 1189,2362 1129,2352" class="messageLine0" stroke-width="2" stroke="none" marker-end="url(#arrowhead)" style="fill: none;"/></svg>